# xmcd
#
# Track frame offsets: 
#        150
#        11550
#        21600
#        33112
#        46200
#        56625
#        66420
#        86825
#        109920
#        125537
#        140887
#        155817
#        167255
#
# Disc length: 2307 seconds
#
# Revision: 0
# Processed by: cddbd v1.4PL0 Copyright (c) Steve Scherf et al.
# Submitted via: ExactAudioCopy v0.90b4
#
DISCID=b809010d
DTITLE=Smiley Burnette - Smiley Burnette Is Frog Millhouse
DYEAR=1900
DGENRE=Country
TTITLE0=It's My Lazy Day
TTITLE1=Lilac Lane
TTITLE2=Broomstick Buckaroo
TTITLE3=Old Fishin' Pole
TTITLE4=I Lied Blues
TTITLE5=Catfish, Take A Look At That Worm
TTITLE6=Comedy
TTITLE7=Comedy
TTITLE8=Everybody Makes Me Feel At Home
TTITLE9=Swiss Boy
TTITLE10=That's All Brother
TTITLE11=Lil' Indian
TTITLE12=Way Down Low
EXTD=
EXTT0=
EXTT1=
EXTT2=
EXTT3=
EXTT4=
EXTT5=
EXTT6=
EXTT7=
EXTT8=
EXTT9=
EXTT10=
EXTT11=
EXTT12=
PLAYORDER=
